<svg version="1.1" id="Layer_1" xmlns="http://www.w3.org/2000/svg" xmlns:xlink="http://www.w3.org/1999/xlink" x="0px" y="0px"
	 width="100%" viewBox="0 0 2677 601" enable-background="new 0 0 2677 601" xml:space="preserve">
<path fill="#FFFFFF" opacity="1.000000" stroke="none" 
	d="
M1909.000000,602.000000 
	C1272.666748,602.000000 636.833496,602.000000 1.000171,602.000000 
	C1.000114,401.666779 1.000114,201.333527 1.000057,1.000225 
	C893.333069,1.000150 1785.666138,1.000150 2677.999512,1.000075 
	C2677.999512,201.333115 2677.999512,401.666229 2677.999756,601.999634 
	C2421.833252,602.000000 2165.666748,602.000000 1909.000000,602.000000 
M151.060471,140.447052 
	C149.942154,140.673615 148.803085,140.827057 147.708557,141.137497 
	C123.685089,147.950989 101.639969,158.376999 82.474838,174.832169 
	C66.386749,188.645386 53.604340,204.792709 43.792927,223.499619 
	C34.410229,241.389160 28.970219,260.319611 26.864815,280.414246 
	C25.215118,296.159424 25.384764,311.825623 28.296661,327.270447 
	C31.599627,344.789520 37.379440,361.549377 46.479584,377.106903 
	C54.984013,391.645996 65.111870,404.677124 77.487045,416.195435 
	C90.756912,428.546417 105.709641,438.080627 122.078217,445.505585 
	C140.295639,453.769226 159.585327,458.140778 179.495193,458.819458 
	C189.992188,459.177277 200.573059,457.900330 211.079407,456.954437 
	C225.018982,455.699493 238.262009,451.500366 251.005478,445.938568 
	C277.176971,434.516174 298.877014,417.292175 316.038055,394.448792 
	C335.108795,369.063354 345.558044,340.334503 347.858459,308.808258 
	C348.891052,294.657257 347.820404,280.488678 345.105835,266.419434 
	C339.137085,235.483978 324.875031,208.933792 303.517883,186.087967 
	C288.973236,170.529434 271.568878,158.732986 252.182266,150.159790 
	C233.802338,142.031738 214.484421,137.326279 194.212036,136.953293 
	C179.971909,136.691284 165.829178,137.221054 151.060471,140.447052 
M2209.983643,414.306793 
	C2208.995361,413.208221 2208.028809,411.178253 2207.015625,411.155029 
	C2196.747314,410.919250 2186.471191,411.011108 2175.964355,411.011108 
	C2177.233643,423.164185 2181.301514,433.537140 2188.868408,442.294006 
	C2203.856689,459.639404 2223.808350,465.982513 2245.875000,466.900269 
	C2253.114502,467.201385 2260.431641,466.634979 2267.662842,465.941345 
	C2283.745117,464.398804 2297.724121,457.560059 2308.933105,446.291382 
	C2323.152344,431.996429 2328.726562,413.588257 2328.872559,393.907043 
	C2329.251465,342.748108 2329.000000,291.584503 2329.000000,240.422775 
	C2329.000000,238.675797 2329.000000,236.928818 2329.000000,235.276642 
	C2317.282227,235.276642 2306.347900,235.276642 2294.819580,235.276642 
	C2294.819580,241.865265 2294.819580,248.190369 2294.819580,255.140945 
	C2293.564941,253.975235 2292.926758,253.442871 2292.357666,252.844635 
	C2274.974121,234.566681 2253.065186,229.653107 2229.263672,233.296951 
	C2212.423584,235.875076 2197.922852,243.942917 2186.780273,257.575684 
	C2176.480713,270.176544 2170.421631,284.589050 2169.292480,300.475922 
	C2168.480713,311.898529 2169.321777,323.685364 2171.259033,334.995697 
	C2173.825439,349.978241 2181.365967,363.097900 2192.339355,373.608124 
	C2202.777100,383.605713 2215.215820,390.167206 2229.952881,392.163940 
	C2249.651123,394.832825 2267.886719,392.073456 2283.914795,379.567474 
	C2287.591064,376.698853 2291.027100,373.522003 2294.999023,370.123016 
	C2294.999023,380.582489 2295.666748,390.450745 2294.834229,400.190796 
	C2293.729004,413.124603 2288.192383,424.040161 2277.006836,431.567169 
	C2268.213379,437.484406 2258.410645,438.513336 2248.230713,437.995789 
	C2231.449463,437.142700 2218.363281,430.104370 2209.983643,414.306793 
M953.000000,331.500000 
	C953.000000,375.568268 953.000000,419.636566 953.000000,463.605438 
	C964.394775,463.605438 975.111633,463.605438 986.196716,463.605438 
	C986.196716,432.351807 986.196716,401.491241 986.196716,369.558990 
	C987.559692,371.452057 988.127075,372.634003 989.031006,373.436859 
	C1003.826721,386.575867 1020.771362,393.508026 1040.934448,393.154724 
	C1060.070190,392.819427 1076.160889,385.878540 1089.507324,372.805634 
	C1103.113037,359.478821 1110.170532,342.474365 1111.786133,323.792877 
	C1113.428955,304.794098 1111.942383,285.957031 1101.988403,268.772949 
	C1095.178223,257.015869 1086.424072,247.321335 1074.210449,241.049789 
	C1060.811279,234.169434 1046.834351,231.120850 1031.594971,232.824661 
	C1019.577148,234.168304 1008.607605,237.493378 998.863464,244.608978 
	C994.580383,247.736618 990.484009,251.119919 985.829834,254.756744 
	C985.829834,247.963150 985.829834,241.698685 985.829834,235.318497 
	C974.761108,235.318497 964.046631,235.318497 953.000000,235.318497 
	C953.000000,267.257202 953.000000,298.878601 953.000000,331.500000 
M499.442413,388.000977 
	C504.305573,386.647736 509.227966,385.475494 514.020996,383.907867 
	C529.512451,378.841278 543.015869,370.303009 553.366211,357.851624 
	C565.990662,342.664551 572.561768,324.905060 574.256287,304.929382 
	C575.587219,289.240051 574.421875,274.118256 569.929138,259.192505 
	C563.785583,238.782135 551.712891,222.624161 533.853210,211.017151 
	C514.981201,198.752182 493.655640,194.687271 471.650757,194.114029 
	C451.166138,193.580414 430.656708,193.994995 410.158203,194.012650 
	C408.882050,194.013748 407.606049,194.193558 406.366302,194.287476 
	C406.366302,259.997528 406.366302,325.379425 406.366302,390.998199 
	C430.215759,390.998199 453.703125,391.225159 477.181366,390.861389 
	C484.325989,390.750671 491.445374,389.011475 499.442413,388.000977 
M1481.680420,389.991547 
	C1510.880615,397.592041 1536.611694,392.129211 1558.191528,369.110291 
	C1558.191528,376.696533 1558.191528,383.633118 1558.191528,390.680115 
	C1569.244629,390.680115 1579.957764,390.680115 1590.657471,390.680115 
	C1590.657471,338.668365 1590.657471,286.977234 1590.657471,235.397812 
	C1579.595459,235.397812 1568.879883,235.397812 1557.776245,235.397812 
	C1557.776245,242.340439 1557.776245,248.889526 1557.776245,255.766739 
	C1553.327148,251.822021 1549.592651,247.770477 1545.169434,244.716568 
	C1525.508667,231.142548 1504.009644,229.068329 1481.537964,235.867310 
	C1450.155151,245.362427 1432.740967,274.568634 1431.109497,304.576691 
	C1430.707886,311.964630 1431.264038,319.470825 1432.080078,326.845215 
	C1433.891357,343.216827 1440.412476,357.591339 1451.406006,369.943085 
	C1459.562012,379.106628 1469.465088,385.602081 1481.680420,389.991547 
M2460.087402,254.717896 
	C2458.753662,258.393616 2457.402100,262.062836 2456.089600,265.746094 
	C2442.857422,302.881805 2429.625244,340.017517 2416.413086,377.160278 
	C2414.844971,381.568390 2413.394775,386.018372 2411.775391,390.787048 
	C2423.735352,390.787048 2435.176514,390.787048 2446.481689,390.787048 
	C2451.185059,377.434265 2455.823486,364.265106 2460.429443,351.188049 
	C2487.718994,351.188049 2514.674316,351.188049 2541.428223,351.188049 
	C2546.161621,364.583099 2550.813721,377.747681 2555.348877,390.581268 
	C2567.134033,390.581268 2578.489258,390.581268 2590.239014,390.581268 
	C2589.562744,388.394257 2589.105469,386.676300 2588.505127,385.009949 
	C2574.700439,346.692657 2560.840332,308.395172 2547.077393,270.062927 
	C2538.434570,245.991867 2529.968506,221.857407 2521.281250,197.802643 
	C2520.741455,196.307724 2518.986328,194.199020 2517.754395,194.170258 
	C2505.952881,193.894547 2494.142090,194.005356 2482.163574,194.005356 
	C2474.876953,214.173553 2467.678955,234.097015 2460.087402,254.717896 
M1332.638184,365.000000 
	C1308.027222,365.041473 1290.481445,341.225189 1292.791870,324.902069 
	C1331.671997,324.902069 1370.602783,324.902069 1409.676147,324.902069 
	C1411.843140,313.111237 1411.426025,301.738251 1409.049072,290.330353 
	C1404.433838,268.180603 1392.768799,251.213806 1372.434448,240.884232 
	C1355.193848,232.126236 1336.930908,230.288834 1317.969116,233.956467 
	C1294.676880,238.461731 1276.637573,250.451981 1266.194458,271.898071 
	C1257.303833,290.156219 1255.350220,309.631592 1258.864624,329.838226 
	C1262.334229,349.787354 1271.134399,366.520813 1287.340454,378.539520 
	C1307.142456,393.225128 1329.961304,395.627014 1353.561646,391.592468 
	C1366.113159,389.446716 1377.501953,383.861298 1387.028564,375.313873 
	C1396.414185,366.893066 1403.279663,356.669098 1406.645508,344.000397 
	C1395.574219,344.000397 1384.914551,343.891357 1374.261963,344.121582 
	C1372.718750,344.154968 1370.897339,345.527588 1369.749390,346.779877 
	C1367.105957,349.663513 1365.189087,353.304382 1362.279053,355.834961 
	C1354.113403,362.935760 1344.364746,365.734222 1332.638184,365.000000 
M601.899170,348.534027 
	C617.242981,384.928467 651.129272,396.585419 684.643677,392.708527 
	C718.596619,388.780914 738.820190,365.449249 743.875793,344.012665 
	C732.484924,344.012665 721.212402,343.957947 709.942688,344.114075 
	C709.017822,344.126892 708.016052,345.486298 707.215210,346.369751 
	C703.715393,350.230377 700.678284,354.623138 696.734375,357.945648 
	C687.746582,365.517273 676.618896,366.272858 665.791992,364.751129 
	C654.981140,363.231659 645.337830,358.615082 638.436829,349.172028 
	C633.152771,341.941559 630.346436,334.089203 629.203430,324.894623 
	C668.806274,324.894623 708.219849,324.894623 747.570007,324.894623 
	C748.078857,319.847931 748.974609,315.275055 748.914490,310.714813 
	C748.762512,299.197876 747.325806,287.768738 742.883362,277.066895 
	C735.566956,259.441559 723.646973,246.152847 705.585876,238.798248 
	C692.276550,233.378555 678.734009,231.428452 664.315918,232.775528 
	C654.002075,233.739136 644.190308,235.900360 635.148315,240.522842 
	C608.822632,253.981201 597.241394,276.965088 595.085083,305.377960 
	C593.980042,319.939301 595.814697,334.257294 601.899170,348.534027 
M846.500732,393.000000 
	C881.827881,394.200287 908.941833,373.272400 917.834473,344.000000 
	C907.085144,344.000000 896.483948,344.126007 885.889221,343.918671 
	C882.937927,343.860901 881.542419,345.025391 880.079468,347.363861 
	C878.095520,350.535095 875.971680,353.903229 873.113525,356.197266 
	C853.764465,371.726837 823.245483,366.884308 809.804077,346.199951 
	C805.729248,339.929260 802.923706,333.069733 803.201965,324.927063 
	C842.640076,324.927063 881.584839,324.927063 921.082947,324.927063 
	C921.403992,320.557434 921.981812,316.498840 921.933105,312.447754 
	C921.863831,306.678741 921.582764,300.887970 920.953247,295.154694 
	C919.355591,280.602539 913.624695,267.686707 904.082520,256.682159 
	C889.232788,239.556778 869.466797,232.933716 847.573364,232.137466 
	C836.086304,231.719696 824.676453,233.739319 813.950867,238.114075 
	C796.878662,245.077499 783.846313,256.845673 776.303162,273.656616 
	C768.128357,291.875397 766.310059,311.181946 770.044983,330.837921 
	C773.266418,347.791718 780.494507,362.563538 793.670288,374.285950 
	C808.540161,387.515625 825.892395,393.245178 846.500732,393.000000 
M1855.460449,241.971634 
	C1826.256958,226.682816 1798.789917,228.535172 1772.788818,250.732407 
	C1772.788818,245.265335 1772.788818,240.222549 1772.788818,235.266525 
	C1761.636108,235.266525 1751.035278,235.266525 1740.326172,235.266525 
	C1740.326172,287.249207 1740.326172,338.964783 1740.326172,390.610840 
	C1751.376709,390.610840 1762.096558,390.610840 1773.000000,390.610840 
	C1773.000000,378.731567 1772.887573,367.239166 1773.024658,355.749756 
	C1773.270386,335.151581 1773.070923,314.522003 1774.218628,293.970367 
	C1774.928589,281.256836 1781.309814,271.067108 1793.366821,265.252045 
	C1802.769531,260.717163 1812.614502,259.730103 1822.574219,262.382874 
	C1829.878662,264.328430 1836.297363,267.886871 1841.180176,274.260590 
	C1847.615723,282.660919 1849.848511,292.192200 1849.926392,302.291809 
	C1850.139771,329.954681 1850.000000,357.620239 1850.000000,385.284760 
	C1850.000000,387.060089 1850.000000,388.835419 1850.000000,390.649719 
	C1861.296631,390.649719 1872.015503,390.649719 1883.000000,390.649719 
	C1883.000000,388.489044 1883.000000,386.673065 1883.000000,384.857086 
	C1883.000000,359.025787 1883.169312,333.192749 1882.907959,307.364105 
	C1882.816528,298.327728 1882.429810,289.163849 1880.829102,280.301819 
	C1877.953247,264.380005 1870.099121,251.259827 1855.460449,241.971634 
M2029.845947,390.187775 
	C2029.897339,359.700409 2029.789795,329.211487 2030.091187,298.726593 
	C2030.188965,288.836029 2033.345093,279.556305 2040.318237,272.317230 
	C2051.008057,261.219635 2064.400635,259.056122 2078.870117,262.464874 
	C2089.625000,264.998596 2098.182617,271.020905 2101.993164,281.614807 
	C2104.550049,288.723877 2106.624268,296.424652 2106.778564,303.904816 
	C2107.339600,331.051483 2107.000000,358.216736 2107.000000,385.375000 
	C2107.000000,387.141327 2107.000000,388.907654 2107.000000,390.620728 
	C2118.026123,390.620728 2128.411133,390.620728 2139.000000,390.620728 
	C2139.000000,388.420197 2139.000000,386.598267 2139.000000,384.776337 
	C2139.000000,355.118866 2139.109375,325.460632 2138.909424,295.804504 
	C2138.868652,289.776886 2138.218506,283.630188 2136.879395,277.759674 
	C2133.892334,264.665436 2127.674072,253.353882 2116.635010,245.136948 
	C2106.670410,237.719681 2095.526855,234.173477 2083.125000,232.760651 
	C2069.531006,231.211990 2057.017578,233.708359 2045.134399,239.602554 
	C2039.727051,242.284637 2035.141235,246.623291 2029.840576,250.458206 
	C2029.840576,245.303391 2029.840576,240.371323 2029.840576,235.317764 
	C2018.766846,235.317764 2008.050293,235.317764 1997.364746,235.317764 
	C1997.364746,287.343719 1997.364746,339.051025 1997.364746,390.850708 
	C2008.207642,390.850708 2018.686646,390.850708 2029.845947,390.187775 
M1176.003296,361.270538 
	C1176.003296,305.661224 1176.003296,250.051910 1176.003296,194.327469 
	C1164.750366,194.327469 1154.031982,194.327469 1143.387207,194.327469 
	C1143.387207,260.038239 1143.387207,325.420776 1143.387207,390.727783 
	C1176.374634,390.727783 1208.974121,390.727783 1241.664429,390.727783 
	C1241.664429,381.733307 1241.664429,373.014465 1241.664429,364.000000 
	C1239.520142,364.000000 1237.709473,364.000000 1235.898682,364.000000 
	C1217.566406,364.000000 1199.234009,364.044861 1180.902466,363.922791 
	C1179.272217,363.911987 1177.649414,362.815491 1176.003296,361.270538 
M1665.000000,323.500031 
	C1665.333130,314.900421 1665.276978,306.264252 1666.080078,297.708771 
	C1667.772827,279.679504 1678.337280,267.458893 1698.226807,267.014648 
	C1702.675415,266.915253 1707.128296,267.000000 1711.693115,267.000000 
	C1711.693115,255.064133 1711.693115,243.663727 1711.693115,232.106918 
	C1692.542358,232.365829 1676.766724,238.936508 1664.769043,255.983368 
	C1664.769043,247.931564 1664.769043,241.657028 1664.769043,235.351837 
	C1653.700928,235.351837 1642.981689,235.351837 1632.237061,235.351837 
	C1632.237061,287.303284 1632.237061,338.902557 1632.237061,390.699524 
	C1643.193604,390.699524 1653.911743,390.699524 1665.000000,390.699524 
	C1665.000000,368.434082 1665.000000,346.467041 1665.000000,323.500031 
M2653.000000,256.500000 
	C2653.000000,235.753204 2653.000000,215.006393 2653.000000,194.412231 
	C2641.573975,194.412231 2630.857666,194.412231 2620.264160,194.412231 
	C2620.264160,260.068756 2620.264160,325.312775 2620.264160,390.677368 
	C2631.246338,390.677368 2641.961426,390.677368 2653.000000,390.677368 
	C2653.000000,346.070343 2653.000000,301.785187 2653.000000,256.500000 
M1955.187744,235.153976 
	C1944.587769,235.153976 1933.987793,235.153976 1923.327515,235.153976 
	C1923.327515,287.279907 1923.327515,338.981628 1923.327515,390.613831 
	C1934.375977,390.613831 1945.093384,390.613831 1956.000000,390.613831 
	C1956.000000,379.408966 1956.010254,368.589478 1955.998291,357.769989 
	C1955.953003,317.124756 1955.900513,276.479553 1955.187744,235.153976 
M2354.535889,355.979492 
	C2349.338867,362.191132 2347.014893,368.869720 2348.799072,377.274963 
	C2350.803711,386.716888 2360.756592,393.260315 2370.449463,392.935577 
	C2379.879883,392.619629 2389.017334,384.170166 2389.954102,375.119354 
	C2391.079346,364.248993 2385.934570,354.862457 2376.531494,352.016571 
	C2368.846191,349.690582 2361.628906,350.597382 2354.535889,355.979492 
M1950.183105,176.041000 
	C1941.701660,171.422409 1933.260498,171.959290 1925.906616,177.842270 
	C1918.825073,183.507355 1916.678345,191.391144 1918.993164,200.357132 
	C1920.866943,207.614639 1928.064087,214.339203 1935.090698,214.977570 
	C1946.665527,216.029114 1952.843018,212.854279 1957.453125,204.966034 
	C1961.834961,197.468323 1962.075439,185.283646 1950.183105,176.041000 
z"/>
<path fill="#FD4A61" opacity="1.000000" stroke="none" 
	d="
M151.449310,140.264160 
	C165.829178,137.221054 179.971909,136.691284 194.212036,136.953293 
	C214.484421,137.326279 233.802338,142.031738 252.182266,150.159790 
	C271.568878,158.732986 288.973236,170.529434 303.517883,186.087967 
	C324.875031,208.933792 339.137085,235.483978 345.105835,266.419434 
	C347.820404,280.488678 348.891052,294.657257 347.858459,308.808258 
	C345.558044,340.334503 335.108795,369.063354 316.038055,394.448792 
	C298.877014,417.292175 277.176971,434.516174 251.005478,445.938568 
	C238.262009,451.500366 225.018982,455.699493 211.079407,456.954437 
	C200.573059,457.900330 189.992188,459.177277 179.495193,458.819458 
	C159.585327,458.140778 140.295639,453.769226 122.078217,445.505585 
	C105.709641,438.080627 90.756912,428.546417 77.487045,416.195435 
	C65.111870,404.677124 54.984013,391.645996 46.479584,377.106903 
	C37.379440,361.549377 31.599627,344.789520 28.296661,327.270447 
	C25.384764,311.825623 25.215118,296.159424 26.864815,280.414246 
	C28.970219,260.319611 34.410229,241.389160 43.792927,223.499619 
	C53.604340,204.792709 66.386749,188.645386 82.474838,174.832169 
	C101.639969,158.376999 123.685089,147.950989 147.708557,141.137497 
	C148.803085,140.827057 149.942154,140.673615 151.449310,140.264160 
M308.000031,263.585663 
	C307.341583,258.221680 307.031555,252.787643 305.969055,247.504944 
	C298.125244,208.506958 276.679840,179.415588 241.461517,160.939392 
	C220.625748,150.008560 198.360779,146.016800 174.767807,148.860062 
	C160.600555,150.567383 147.274170,154.590530 134.649109,160.861298 
	C118.646164,168.809845 105.359680,180.270401 94.260612,194.252365 
	C78.769058,213.767685 70.294273,236.217957 68.188171,260.810211 
	C66.923248,275.580353 68.500473,290.278809 72.776451,304.772736 
	C82.881638,339.025360 103.435417,364.644775 135.067642,380.856628 
	C154.268570,390.697357 174.820221,395.158752 196.757477,393.177979 
	C211.322266,391.862885 225.086365,388.369385 238.222168,382.287170 
	C255.531311,374.272522 269.959656,362.480316 281.860107,347.610016 
	C291.363312,335.735168 298.256958,322.378265 302.847809,307.963226 
	C307.327728,293.896484 308.831360,279.333862 308.000031,263.585663 
z"/>
<path fill="#FD4A61" opacity="1.000000" stroke="none" 
	d="
M2210.020020,414.706512 
	C2218.363281,430.104370 2231.449463,437.142700 2248.230713,437.995789 
	C2258.410645,438.513336 2268.213379,437.484406 2277.006836,431.567169 
	C2288.192383,424.040161 2293.729004,413.124603 2294.834229,400.190796 
	C2295.666748,390.450745 2294.999023,380.582489 2294.999023,370.123016 
	C2291.027100,373.522003 2287.591064,376.698853 2283.914795,379.567474 
	C2267.886719,392.073456 2249.651123,394.832825 2229.952881,392.163940 
	C2215.215820,390.167206 2202.777100,383.605713 2192.339355,373.608124 
	C2181.365967,363.097900 2173.825439,349.978241 2171.259033,334.995697 
	C2169.321777,323.685364 2168.480713,311.898529 2169.292480,300.475922 
	C2170.421631,284.589050 2176.480713,270.176544 2186.780273,257.575684 
	C2197.922852,243.942917 2212.423584,235.875076 2229.263672,233.296951 
	C2253.065186,229.653107 2274.974121,234.566681 2292.357666,252.844635 
	C2292.926758,253.442871 2293.564941,253.975235 2294.819580,255.140945 
	C2294.819580,248.190369 2294.819580,241.865265 2294.819580,235.276642 
	C2306.347900,235.276642 2317.282227,235.276642 2329.000000,235.276642 
	C2329.000000,236.928818 2329.000000,238.675797 2329.000000,240.422775 
	C2329.000000,291.584503 2329.251465,342.748108 2328.872559,393.907043 
	C2328.726562,413.588257 2323.152344,431.996429 2308.933105,446.291382 
	C2297.724121,457.560059 2283.745117,464.398804 2267.662842,465.941345 
	C2260.431641,466.634979 2253.114502,467.201385 2245.875000,466.900269 
	C2223.808350,465.982513 2203.856689,459.639404 2188.868408,442.294006 
	C2181.301514,433.537140 2177.233643,423.164185 2175.964355,411.011108 
	C2186.471191,411.011108 2196.747314,410.919250 2207.015625,411.155029 
	C2208.028809,411.178253 2208.995361,413.208221 2210.020020,414.706512 
M2294.989746,304.902985 
	C2294.657959,303.308014 2294.295654,301.718628 2293.999512,300.117126 
	C2292.031006,289.473694 2287.280029,280.035614 2279.245850,273.020172 
	C2268.626221,263.747162 2256.168457,259.301239 2241.630371,261.913330 
	C2229.346436,264.120422 2219.256104,269.939117 2212.157227,279.901062 
	C2201.983398,294.178314 2200.251709,310.505859 2204.215576,327.161377 
	C2209.499268,349.360657 2228.669189,365.643768 2252.060059,364.217834 
	C2268.705322,363.203064 2284.978516,350.504333 2291.069336,335.417755 
	C2294.944092,325.819794 2295.315430,315.908142 2294.989746,304.902985 
z"/>
<path fill="#FD4A61" opacity="1.000000" stroke="none" 
	d="
M953.000000,331.000000 
	C953.000000,298.878601 953.000000,267.257202 953.000000,235.318497 
	C964.046631,235.318497 974.761108,235.318497 985.829834,235.318497 
	C985.829834,241.698685 985.829834,247.963150 985.829834,254.756744 
	C990.484009,251.119919 994.580383,247.736618 998.863464,244.608978 
	C1008.607605,237.493378 1019.577148,234.168304 1031.594971,232.824661 
	C1046.834351,231.120850 1060.811279,234.169434 1074.210449,241.049789 
	C1086.424072,247.321335 1095.178223,257.015869 1101.988403,268.772949 
	C1111.942383,285.957031 1113.428955,304.794098 1111.786133,323.792877 
	C1110.170532,342.474365 1103.113037,359.478821 1089.507324,372.805634 
	C1076.160889,385.878540 1060.070190,392.819427 1040.934448,393.154724 
	C1020.771362,393.508026 1003.826721,386.575867 989.031006,373.436859 
	C988.127075,372.634003 987.559692,371.452057 986.196716,369.558990 
	C986.196716,401.491241 986.196716,432.351807 986.196716,463.605438 
	C975.111633,463.605438 964.394775,463.605438 953.000000,463.605438 
	C953.000000,419.636566 953.000000,375.568268 953.000000,331.000000 
M1042.383057,363.025085 
	C1048.219604,360.221680 1054.980469,358.496490 1059.729736,354.424866 
	C1078.447998,338.377441 1082.759521,317.581543 1076.054077,294.624146 
	C1070.615723,276.004181 1057.685059,265.124207 1038.269165,261.876221 
	C1022.571228,259.250153 1009.416931,264.623657 999.231995,275.602448 
	C979.596863,296.767914 980.945374,335.688995 1004.028931,354.471008 
	C1015.015564,363.410278 1027.697510,365.980347 1042.383057,363.025085 
z"/>
<path fill="#FD4A61" opacity="1.000000" stroke="none" 
	d="
M499.009369,388.009552 
	C491.445374,389.011475 484.325989,390.750671 477.181366,390.861389 
	C453.703125,391.225159 430.215759,390.998199 406.366302,390.998199 
	C406.366302,325.379425 406.366302,259.997528 406.366302,194.287476 
	C407.606049,194.193558 408.882050,194.013748 410.158203,194.012650 
	C430.656708,193.994995 451.166138,193.580414 471.650757,194.114029 
	C493.655640,194.687271 514.981201,198.752182 533.853210,211.017151 
	C551.712891,222.624161 563.785583,238.782135 569.929138,259.192505 
	C574.421875,274.118256 575.587219,289.240051 574.256287,304.929382 
	C572.561768,324.905060 565.990662,342.664551 553.366211,357.851624 
	C543.015869,370.303009 529.512451,378.841278 514.020996,383.907867 
	C509.227966,385.475494 504.305573,386.647736 499.009369,388.009552 
M440.776642,222.023193 
	C440.184418,223.648621 439.078339,225.272964 439.074890,226.899643 
	C438.981049,271.036682 438.997589,315.173920 439.010803,359.311127 
	C439.011230,360.755005 439.171478,362.198822 439.278442,364.000000 
	C449.048035,364.000000 458.518921,364.274231 467.967316,363.930481 
	C479.746002,363.501923 491.505371,362.613678 502.608795,357.997925 
	C517.148621,351.953644 528.109070,342.308716 534.241394,327.490509 
	C540.345520,312.740295 541.971619,297.632935 540.198730,281.739716 
	C538.857727,269.718445 535.619446,258.519409 528.969543,248.676376 
	C517.299988,231.403198 500.027588,223.356049 479.696655,222.140244 
	C467.083588,221.385971 454.388611,222.002182 440.776642,222.023193 
z"/>
<path fill="#FD4A61" opacity="1.000000" stroke="none" 
	d="
M1481.274902,389.960938 
	C1469.465088,385.602081 1459.562012,379.106628 1451.406006,369.943085 
	C1440.412476,357.591339 1433.891357,343.216827 1432.080078,326.845215 
	C1431.264038,319.470825 1430.707886,311.964630 1431.109497,304.576691 
	C1432.740967,274.568634 1450.155151,245.362427 1481.537964,235.867310 
	C1504.009644,229.068329 1525.508667,231.142548 1545.169434,244.716568 
	C1549.592651,247.770477 1553.327148,251.822021 1557.776245,255.766739 
	C1557.776245,248.889526 1557.776245,242.340439 1557.776245,235.397812 
	C1568.879883,235.397812 1579.595459,235.397812 1590.657471,235.397812 
	C1590.657471,286.977234 1590.657471,338.668365 1590.657471,390.680115 
	C1579.957764,390.680115 1569.244629,390.680115 1558.191528,390.680115 
	C1558.191528,383.633118 1558.191528,376.696533 1558.191528,369.110291 
	C1536.611694,392.129211 1510.880615,397.592041 1481.274902,389.960938 
M1486.993774,268.474426 
	C1484.613892,270.197418 1481.947021,271.634888 1479.901611,273.690704 
	C1468.436401,285.213928 1464.125732,299.334351 1464.968140,315.362122 
	C1465.808716,331.353882 1471.519165,344.636658 1484.308594,354.965790 
	C1503.872925,370.766235 1534.316162,365.589508 1548.104004,344.635010 
	C1555.464844,333.448059 1558.138916,321.385071 1557.177124,307.984589 
	C1556.283569,295.531860 1552.431641,284.598267 1543.972168,275.577301 
	C1529.741821,260.402557 1506.965698,256.026031 1486.993774,268.474426 
z"/>
<path fill="#FD4A61" opacity="1.000000" stroke="none" 
	d="
M2460.284180,254.369186 
	C2467.678955,234.097015 2474.876953,214.173553 2482.163574,194.005356 
	C2494.142090,194.005356 2505.952881,193.894547 2517.754395,194.170258 
	C2518.986328,194.199020 2520.741455,196.307724 2521.281250,197.802643 
	C2529.968506,221.857407 2538.434570,245.991867 2547.077393,270.062927 
	C2560.840332,308.395172 2574.700439,346.692657 2588.505127,385.009949 
	C2589.105469,386.676300 2589.562744,388.394257 2590.239014,390.581268 
	C2578.489258,390.581268 2567.134033,390.581268 2555.348877,390.581268 
	C2550.813721,377.747681 2546.161621,364.583099 2541.428223,351.188049 
	C2514.674316,351.188049 2487.718994,351.188049 2460.429443,351.188049 
	C2455.823486,364.265106 2451.185059,377.434265 2446.481689,390.787048 
	C2435.176514,390.787048 2423.735352,390.787048 2411.775391,390.787048 
	C2413.394775,386.018372 2414.844971,381.568390 2416.413086,377.160278 
	C2429.625244,340.017517 2442.857422,302.881805 2456.089600,265.746094 
	C2457.402100,262.062836 2458.753662,258.393616 2460.284180,254.369186 
M2489.906006,267.316132 
	C2483.235840,286.047699 2476.565430,304.779266 2469.830811,323.691528 
	C2490.991211,323.691528 2511.352783,323.691528 2531.998291,323.691528 
	C2521.772705,294.502563 2511.675781,265.679779 2501.578613,236.856979 
	C2501.211914,236.956009 2500.845459,237.055023 2500.478760,237.154053 
	C2496.985352,246.941986 2493.491943,256.729919 2489.906006,267.316132 
z"/>
<path fill="#FD4A61" opacity="1.000000" stroke="none" 
	d="
M1333.114014,365.000000 
	C1344.364746,365.734222 1354.113403,362.935760 1362.279053,355.834961 
	C1365.189087,353.304382 1367.105957,349.663513 1369.749390,346.779877 
	C1370.897339,345.527588 1372.718750,344.154968 1374.261963,344.121582 
	C1384.914551,343.891357 1395.574219,344.000397 1406.645508,344.000397 
	C1403.279663,356.669098 1396.414185,366.893066 1387.028564,375.313873 
	C1377.501953,383.861298 1366.113159,389.446716 1353.561646,391.592468 
	C1329.961304,395.627014 1307.142456,393.225128 1287.340454,378.539520 
	C1271.134399,366.520813 1262.334229,349.787354 1258.864624,329.838226 
	C1255.350220,309.631592 1257.303833,290.156219 1266.194458,271.898071 
	C1276.637573,250.451981 1294.676880,238.461731 1317.969116,233.956467 
	C1336.930908,230.288834 1355.193848,232.126236 1372.434448,240.884232 
	C1392.768799,251.213806 1404.433838,268.180603 1409.049072,290.330353 
	C1411.426025,301.738251 1411.843140,313.111237 1409.676147,324.902069 
	C1370.602783,324.902069 1331.671997,324.902069 1292.791870,324.902069 
	C1290.481445,341.225189 1308.027222,365.041473 1333.114014,365.000000 
M1309.023438,268.469391 
	C1298.884277,275.567993 1294.612671,286.008484 1291.832397,297.758026 
	C1320.129639,297.758026 1347.843628,297.758026 1375.948120,297.758026 
	C1375.948120,295.743530 1376.296875,293.871521 1375.895386,292.177246 
	C1370.401855,268.988403 1351.800537,260.238770 1331.822876,260.222382 
	C1323.910645,260.215912 1316.198975,263.118835 1309.023438,268.469391 
z"/>
<path fill="#FD4A61" opacity="1.000000" stroke="none" 
	d="
M601.662903,348.223999 
	C595.814697,334.257294 593.980042,319.939301 595.085083,305.377960 
	C597.241394,276.965088 608.822632,253.981201 635.148315,240.522842 
	C644.190308,235.900360 654.002075,233.739136 664.315918,232.775528 
	C678.734009,231.428452 692.276550,233.378555 705.585876,238.798248 
	C723.646973,246.152847 735.566956,259.441559 742.883362,277.066895 
	C747.325806,287.768738 748.762512,299.197876 748.914490,310.714813 
	C748.974609,315.275055 748.078857,319.847931 747.570007,324.894623 
	C708.219849,324.894623 668.806274,324.894623 629.203430,324.894623 
	C630.346436,334.089203 633.152771,341.941559 638.436829,349.172028 
	C645.337830,358.615082 654.981140,363.231659 665.791992,364.751129 
	C676.618896,366.272858 687.746582,365.517273 696.734375,357.945648 
	C700.678284,354.623138 703.715393,350.230377 707.215210,346.369751 
	C708.016052,345.486298 709.017822,344.126892 709.942688,344.114075 
	C721.212402,343.957947 732.484924,344.012665 743.875793,344.012665 
	C738.820190,365.449249 718.596619,388.780914 684.643677,392.708527 
	C651.129272,396.585419 617.242981,384.928467 601.662903,348.223999 
M633.778931,297.999878 
	C660.384399,297.999878 686.989929,297.999878 714.060547,297.999878 
	C713.177612,288.320221 710.456360,279.946960 703.789612,273.355927 
	C692.622253,262.315308 678.958313,258.465973 663.709717,261.096863 
	C644.567139,264.399597 633.852905,278.431244 630.189331,295.274719 
	C630.040833,295.957397 631.917114,297.080475 633.778931,297.999878 
z"/>
<path fill="#FD4A61" opacity="1.000000" stroke="none" 
	d="
M846.006836,393.000000 
	C825.892395,393.245178 808.540161,387.515625 793.670288,374.285950 
	C780.494507,362.563538 773.266418,347.791718 770.044983,330.837921 
	C766.310059,311.181946 768.128357,291.875397 776.303162,273.656616 
	C783.846313,256.845673 796.878662,245.077499 813.950867,238.114075 
	C824.676453,233.739319 836.086304,231.719696 847.573364,232.137466 
	C869.466797,232.933716 889.232788,239.556778 904.082520,256.682159 
	C913.624695,267.686707 919.355591,280.602539 920.953247,295.154694 
	C921.582764,300.887970 921.863831,306.678741 921.933105,312.447754 
	C921.981812,316.498840 921.403992,320.557434 921.082947,324.927063 
	C881.584839,324.927063 842.640076,324.927063 803.201965,324.927063 
	C802.923706,333.069733 805.729248,339.929260 809.804077,346.199951 
	C823.245483,366.884308 853.764465,371.726837 873.113525,356.197266 
	C875.971680,353.903229 878.095520,350.535095 880.079468,347.363861 
	C881.542419,345.025391 882.937927,343.860901 885.889221,343.918671 
	C896.483948,344.126007 907.085144,344.000000 917.834473,344.000000 
	C908.941833,373.272400 881.827881,394.200287 846.006836,393.000000 
M814.529297,298.000000 
	C838.811768,298.000000 863.094238,298.000000 887.390259,298.000000 
	C886.031616,272.476562 865.394836,260.004883 844.580505,260.269836 
	C823.079834,260.543610 806.657898,274.640015 803.560852,298.000000 
	C806.909607,298.000000 810.225586,298.000000 814.529297,298.000000 
z"/>
<path fill="#FD4A61" opacity="1.000000" stroke="none" 
	d="
M1855.731934,242.221451 
	C1870.099121,251.259827 1877.953247,264.380005 1880.829102,280.301819 
	C1882.429810,289.163849 1882.816528,298.327728 1882.907959,307.364105 
	C1883.169312,333.192749 1883.000000,359.025787 1883.000000,384.857086 
	C1883.000000,386.673065 1883.000000,388.489044 1883.000000,390.649719 
	C1872.015503,390.649719 1861.296631,390.649719 1850.000000,390.649719 
	C1850.000000,388.835419 1850.000000,387.060089 1850.000000,385.284760 
	C1850.000000,357.620239 1850.139771,329.954681 1849.926392,302.291809 
	C1849.848511,292.192200 1847.615723,282.660919 1841.180176,274.260590 
	C1836.297363,267.886871 1829.878662,264.328430 1822.574219,262.382874 
	C1812.614502,259.730103 1802.769531,260.717163 1793.366821,265.252045 
	C1781.309814,271.067108 1774.928589,281.256836 1774.218628,293.970367 
	C1773.070923,314.522003 1773.270386,335.151581 1773.024658,355.749756 
	C1772.887573,367.239166 1773.000000,378.731567 1773.000000,390.610840 
	C1762.096558,390.610840 1751.376709,390.610840 1740.326172,390.610840 
	C1740.326172,338.964783 1740.326172,287.249207 1740.326172,235.266525 
	C1751.035278,235.266525 1761.636108,235.266525 1772.788818,235.266525 
	C1772.788818,240.222549 1772.788818,245.265335 1772.788818,250.732407 
	C1798.789917,228.535172 1826.256958,226.682816 1855.731934,242.221451 
z"/>
<path fill="#FD4A61" opacity="1.000000" stroke="none" 
	d="
M2029.505859,390.519226 
	C2018.686646,390.850708 2008.207642,390.850708 1997.364746,390.850708 
	C1997.364746,339.051025 1997.364746,287.343719 1997.364746,235.317764 
	C2008.050293,235.317764 2018.766846,235.317764 2029.840576,235.317764 
	C2029.840576,240.371323 2029.840576,245.303391 2029.840576,250.458206 
	C2035.141235,246.623291 2039.727051,242.284637 2045.134399,239.602554 
	C2057.017578,233.708359 2069.531006,231.211990 2083.125000,232.760651 
	C2095.526855,234.173477 2106.670410,237.719681 2116.635010,245.136948 
	C2127.674072,253.353882 2133.892334,264.665436 2136.879395,277.759674 
	C2138.218506,283.630188 2138.868652,289.776886 2138.909424,295.804504 
	C2139.109375,325.460632 2139.000000,355.118866 2139.000000,384.776337 
	C2139.000000,386.598267 2139.000000,388.420197 2139.000000,390.620728 
	C2128.411133,390.620728 2118.026123,390.620728 2107.000000,390.620728 
	C2107.000000,388.907654 2107.000000,387.141327 2107.000000,385.375000 
	C2107.000000,358.216736 2107.339600,331.051483 2106.778564,303.904816 
	C2106.624268,296.424652 2104.550049,288.723877 2101.993164,281.614807 
	C2098.182617,271.020905 2089.625000,264.998596 2078.870117,262.464874 
	C2064.400635,259.056122 2051.008057,261.219635 2040.318237,272.317230 
	C2033.345093,279.556305 2030.188965,288.836029 2030.091187,298.726593 
	C2029.789795,329.211487 2029.897339,359.700409 2029.505859,390.519226 
z"/>
<path fill="#FD4A61" opacity="1.000000" stroke="none" 
	d="
M1176.013184,361.746887 
	C1177.649414,362.815491 1179.272217,363.911987 1180.902466,363.922791 
	C1199.234009,364.044861 1217.566406,364.000000 1235.898682,364.000000 
	C1237.709473,364.000000 1239.520142,364.000000 1241.664429,364.000000 
	C1241.664429,373.014465 1241.664429,381.733307 1241.664429,390.727783 
	C1208.974121,390.727783 1176.374634,390.727783 1143.387207,390.727783 
	C1143.387207,325.420776 1143.387207,260.038239 1143.387207,194.327469 
	C1154.031982,194.327469 1164.750366,194.327469 1176.003296,194.327469 
	C1176.003296,250.051910 1176.003296,305.661224 1176.013184,361.746887 
z"/>
<path fill="#FD4A61" opacity="1.000000" stroke="none" 
	d="
M1665.000000,324.000000 
	C1665.000000,346.467041 1665.000000,368.434082 1665.000000,390.699524 
	C1653.911743,390.699524 1643.193604,390.699524 1632.237061,390.699524 
	C1632.237061,338.902557 1632.237061,287.303284 1632.237061,235.351837 
	C1642.981689,235.351837 1653.700928,235.351837 1664.769043,235.351837 
	C1664.769043,241.657028 1664.769043,247.931564 1664.769043,255.983368 
	C1676.766724,238.936508 1692.542358,232.365829 1711.693115,232.106918 
	C1711.693115,243.663727 1711.693115,255.064133 1711.693115,267.000000 
	C1707.128296,267.000000 1702.675415,266.915253 1698.226807,267.014648 
	C1678.337280,267.458893 1667.772827,279.679504 1666.080078,297.708771 
	C1665.276978,306.264252 1665.333130,314.900421 1665.000000,324.000000 
z"/>
<path fill="#FD4A61" opacity="1.000000" stroke="none" 
	d="
M2653.000000,257.000000 
	C2653.000000,301.785187 2653.000000,346.070343 2653.000000,390.677368 
	C2641.961426,390.677368 2631.246338,390.677368 2620.264160,390.677368 
	C2620.264160,325.312775 2620.264160,260.068756 2620.264160,194.412231 
	C2630.857666,194.412231 2641.573975,194.412231 2653.000000,194.412231 
	C2653.000000,215.006393 2653.000000,235.753204 2653.000000,257.000000 
z"/>
<path fill="#FD4A61" opacity="1.000000" stroke="none" 
	d="
M1955.519287,235.494156 
	C1955.900513,276.479553 1955.953003,317.124756 1955.998291,357.769989 
	C1956.010254,368.589478 1956.000000,379.408966 1956.000000,390.613831 
	C1945.093384,390.613831 1934.375977,390.613831 1923.327515,390.613831 
	C1923.327515,338.981628 1923.327515,287.279907 1923.327515,235.153976 
	C1933.987793,235.153976 1944.587769,235.153976 1955.519287,235.494156 
z"/>
<path fill="#FD4A61" opacity="1.000000" stroke="none" 
	d="
M2354.803223,355.718323 
	C2361.628906,350.597382 2368.846191,349.690582 2376.531494,352.016571 
	C2385.934570,354.862457 2391.079346,364.248993 2389.954102,375.119354 
	C2389.017334,384.170166 2379.879883,392.619629 2370.449463,392.935577 
	C2360.756592,393.260315 2350.803711,386.716888 2348.799072,377.274963 
	C2347.014893,368.869720 2349.338867,362.191132 2354.803223,355.718323 
z"/>
<path fill="#FD4A61" opacity="1.000000" stroke="none" 
	d="
M1950.517944,176.211761 
	C1962.075439,185.283646 1961.834961,197.468323 1957.453125,204.966034 
	C1952.843018,212.854279 1946.665527,216.029114 1935.090698,214.977570 
	C1928.064087,214.339203 1920.866943,207.614639 1918.993164,200.357132 
	C1916.678345,191.391144 1918.825073,183.507355 1925.906616,177.842270 
	C1933.260498,171.959290 1941.701660,171.422409 1950.517944,176.211761 
z"/>
<path fill="#FFFFFF" opacity="1.000000" stroke="none" 
	d="
M308.000000,264.075043 
	C308.831360,279.333862 307.327728,293.896484 302.847809,307.963226 
	C298.256958,322.378265 291.363312,335.735168 281.860107,347.610016 
	C269.959656,362.480316 255.531311,374.272522 238.222168,382.287170 
	C225.086365,388.369385 211.322266,391.862885 196.757477,393.177979 
	C174.820221,395.158752 154.268570,390.697357 135.067642,380.856628 
	C103.435417,364.644775 82.881638,339.025360 72.776451,304.772736 
	C68.500473,290.278809 66.923248,275.580353 68.188171,260.810211 
	C70.294273,236.217957 78.769058,213.767685 94.260612,194.252365 
	C105.359680,180.270401 118.646164,168.809845 134.649109,160.861298 
	C147.274170,154.590530 160.600555,150.567383 174.767807,148.860062 
	C198.360779,146.016800 220.625748,150.008560 241.461517,160.939392 
	C276.679840,179.415588 298.125244,208.506958 305.969055,247.504944 
	C307.031555,252.787643 307.341583,258.221680 308.000000,264.075043 
M294.987610,282.295319 
	C298.326111,263.579315 298.295227,245.033768 292.354370,226.746460 
	C285.660950,206.142654 273.485901,189.454269 256.580597,176.050110 
	C230.797409,155.606720 201.229614,148.432892 169.228180,153.287811 
	C140.192261,157.692856 116.123367,171.824768 98.002747,195.453079 
	C77.508385,222.176590 72.427986,252.407150 79.507355,284.440308 
	C84.543053,307.226135 97.155418,326.055237 115.436661,341.110870 
	C132.662445,355.297272 152.343460,363.601746 174.199173,365.757385 
	C192.443161,367.556793 210.718933,366.016022 228.066483,358.940765 
	C250.898331,349.628723 269.796387,335.381195 281.889557,313.610687 
	C287.224121,304.007233 290.636688,293.336121 294.987610,282.295319 
z"/>
<path fill="#FFFFFF" opacity="1.000000" stroke="none" 
	d="
M2294.994629,305.367615 
	C2295.315430,315.908142 2294.944092,325.819794 2291.069336,335.417755 
	C2284.978516,350.504333 2268.705322,363.203064 2252.060059,364.217834 
	C2228.669189,365.643768 2209.499268,349.360657 2204.215576,327.161377 
	C2200.251709,310.505859 2201.983398,294.178314 2212.157227,279.901062 
	C2219.256104,269.939117 2229.346436,264.120422 2241.630371,261.913330 
	C2256.168457,259.301239 2268.626221,263.747162 2279.245850,273.020172 
	C2287.280029,280.035614 2292.031006,289.473694 2293.999512,300.117126 
	C2294.295654,301.718628 2294.657959,303.308014 2294.994629,305.367615 
z"/>
<path fill="#FFFFFF" opacity="1.000000" stroke="none" 
	d="
M1041.951416,363.081726 
	C1027.697510,365.980347 1015.015564,363.410278 1004.028931,354.471008 
	C980.945374,335.688995 979.596863,296.767914 999.231995,275.602448 
	C1009.416931,264.623657 1022.571228,259.250153 1038.269165,261.876221 
	C1057.685059,265.124207 1070.615723,276.004181 1076.054077,294.624146 
	C1082.759521,317.581543 1078.447998,338.377441 1059.729736,354.424866 
	C1054.980469,358.496490 1048.219604,360.221680 1041.951416,363.081726 
z"/>
<path fill="#FFFFFF" opacity="1.000000" stroke="none" 
	d="
M441.253510,222.013214 
	C454.388611,222.002182 467.083588,221.385971 479.696655,222.140244 
	C500.027588,223.356049 517.299988,231.403198 528.969543,248.676376 
	C535.619446,258.519409 538.857727,269.718445 540.198730,281.739716 
	C541.971619,297.632935 540.345520,312.740295 534.241394,327.490509 
	C528.109070,342.308716 517.148621,351.953644 502.608795,357.997925 
	C491.505371,362.613678 479.746002,363.501923 467.967316,363.930481 
	C458.518921,364.274231 449.048035,364.000000 439.278442,364.000000 
	C439.171478,362.198822 439.011230,360.755005 439.010803,359.311127 
	C438.997589,315.173920 438.981049,271.036682 439.074890,226.899643 
	C439.078339,225.272964 440.184418,223.648621 441.253510,222.013214 
z"/>
<path fill="#FFFFFF" opacity="1.000000" stroke="none" 
	d="
M1487.266602,268.222900 
	C1506.965698,256.026031 1529.741821,260.402557 1543.972168,275.577301 
	C1552.431641,284.598267 1556.283569,295.531860 1557.177124,307.984589 
	C1558.138916,321.385071 1555.464844,333.448059 1548.104004,344.635010 
	C1534.316162,365.589508 1503.872925,370.766235 1484.308594,354.965790 
	C1471.519165,344.636658 1465.808716,331.353882 1464.968140,315.362122 
	C1464.125732,299.334351 1468.436401,285.213928 1479.901611,273.690704 
	C1481.947021,271.634888 1484.613892,270.197418 1487.266602,268.222900 
z"/>
<path fill="#FFFFFF" opacity="1.000000" stroke="none" 
	d="
M2489.952148,266.916992 
	C2493.491943,256.729919 2496.985352,246.941986 2500.478760,237.154053 
	C2500.845459,237.055023 2501.211914,236.956009 2501.578613,236.856979 
	C2511.675781,265.679779 2521.772705,294.502563 2531.998291,323.691528 
	C2511.352783,323.691528 2490.991211,323.691528 2469.830811,323.691528 
	C2476.565430,304.779266 2483.235840,286.047699 2489.952148,266.916992 
z"/>
<path fill="#FFFFFF" opacity="1.000000" stroke="none" 
	d="
M1309.291992,268.214661 
	C1316.198975,263.118835 1323.910645,260.215912 1331.822876,260.222382 
	C1351.800537,260.238770 1370.401855,268.988403 1375.895386,292.177246 
	C1376.296875,293.871521 1375.948120,295.743530 1375.948120,297.758026 
	C1347.843628,297.758026 1320.129639,297.758026 1291.832397,297.758026 
	C1294.612671,286.008484 1298.884277,275.567993 1309.291992,268.214661 
z"/>
<path fill="#FFFFFF" opacity="1.000000" stroke="none" 
	d="
M633.314453,297.999146 
	C631.917114,297.080475 630.040833,295.957397 630.189331,295.274719 
	C633.852905,278.431244 644.567139,264.399597 663.709717,261.096863 
	C678.958313,258.465973 692.622253,262.315308 703.789612,273.355927 
	C710.456360,279.946960 713.177612,288.320221 714.060547,297.999878 
	C686.989929,297.999878 660.384399,297.999878 633.314453,297.999146 
z"/>
<path fill="#FFFFFF" opacity="1.000000" stroke="none" 
	d="
M814.035461,298.000000 
	C810.225586,298.000000 806.909607,298.000000 803.560852,298.000000 
	C806.657898,274.640015 823.079834,260.543610 844.580505,260.269836 
	C865.394836,260.004883 886.031616,272.476562 887.390259,298.000000 
	C863.094238,298.000000 838.811768,298.000000 814.035461,298.000000 
z"/>
<path fill="#FD4A61" opacity="1.000000" stroke="none" 
	d="
M294.954712,282.722534 
	C290.636688,293.336121 287.224121,304.007233 281.889557,313.610687 
	C269.796387,335.381195 250.898331,349.628723 228.066483,358.940765 
	C210.718933,366.016022 192.443161,367.556793 174.199173,365.757385 
	C152.343460,363.601746 132.662445,355.297272 115.436661,341.110870 
	C97.155418,326.055237 84.543053,307.226135 79.507355,284.440308 
	C72.427986,252.407150 77.508385,222.176590 98.002747,195.453079 
	C116.123367,171.824768 140.192261,157.692856 169.228180,153.287811 
	C201.229614,148.432892 230.797409,155.606720 256.580597,176.050110 
	C273.485901,189.454269 285.660950,206.142654 292.354370,226.746460 
	C298.295227,245.033768 298.326111,263.579315 294.954712,282.722534 
M119.505959,193.995865 
	C103.523911,213.035538 98.631866,235.008316 103.617371,258.957550 
	C107.259338,276.452789 116.695045,290.707916 130.589355,302.253296 
	C146.139297,315.174408 164.117157,321.400177 183.859940,321.708130 
	C192.989471,321.850525 202.469727,319.832611 211.262421,317.095978 
	C230.707642,311.043823 245.692184,299.007751 256.435547,281.366791 
	C265.792450,266.002472 269.022736,249.334869 266.660522,232.136490 
	C263.929199,212.250977 254.147614,195.697937 238.336456,182.655197 
	C222.869553,169.896408 205.034760,163.892181 185.510239,163.206665 
	C173.061646,162.769547 160.764450,165.529633 149.374435,170.967972 
	C138.035202,176.382065 127.582130,183.084778 119.505959,193.995865 
z"/>
<path fill="#FFFFFF" opacity="1.000000" stroke="none" 
	d="
M119.758453,193.736603 
	C127.582130,183.084778 138.035202,176.382065 149.374435,170.967972 
	C160.764450,165.529633 173.061646,162.769547 185.510239,163.206665 
	C205.034760,163.892181 222.869553,169.896408 238.336456,182.655197 
	C254.147614,195.697937 263.929199,212.250977 266.660522,232.136490 
	C269.022736,249.334869 265.792450,266.002472 256.435547,281.366791 
	C245.692184,299.007751 230.707642,311.043823 211.262421,317.095978 
	C202.469727,319.832611 192.989471,321.850525 183.859940,321.708130 
	C164.117157,321.400177 146.139297,315.174408 130.589355,302.253296 
	C116.695045,290.707916 107.259338,276.452789 103.617371,258.957550 
	C98.631866,235.008316 103.523911,213.035538 119.758453,193.736603 
M169.144623,169.379944 
	C156.402512,173.759476 145.075119,180.085693 136.461945,190.933548 
	C121.725388,209.493500 116.946938,230.253510 121.700974,253.293213 
	C124.894234,268.768890 132.646255,281.608856 144.526642,292.057068 
	C159.096512,304.870544 176.415787,309.272430 195.011536,306.679749 
	C211.907806,304.324127 225.907959,295.795685 236.622498,281.995911 
	C249.567886,265.322845 253.427307,246.152969 250.655243,226.102707 
	C247.671036,204.518051 236.526154,187.264130 217.334961,175.797272 
	C207.336426,169.823074 196.309479,167.729553 185.003204,167.169388 
	C180.022995,166.922653 174.958313,168.381500 169.144623,169.379944 
z"/>
<path fill="#FD4A61" opacity="1.000000" stroke="none" 
	d="
M169.538300,169.222961 
	C174.958313,168.381500 180.022995,166.922653 185.003204,167.169388 
	C196.309479,167.729553 207.336426,169.823074 217.334961,175.797272 
	C236.526154,187.264130 247.671036,204.518051 250.655243,226.102707 
	C253.427307,246.152969 249.567886,265.322845 236.622498,281.995911 
	C225.907959,295.795685 211.907806,304.324127 195.011536,306.679749 
	C176.415787,309.272430 159.096512,304.870544 144.526642,292.057068 
	C132.646255,281.608856 124.894234,268.768890 121.700974,253.293213 
	C116.946938,230.253510 121.725388,209.493500 136.461945,190.933548 
	C145.075119,180.085693 156.402512,173.759476 169.538300,169.222961 
M174.658737,176.986725 
	C158.997818,181.402618 148.325623,197.104904 149.896988,213.451828 
	C151.882324,234.105453 170.763565,248.647141 191.326035,244.643127 
	C209.272385,241.148514 220.860245,224.953552 219.072510,206.624634 
	C217.123642,186.643707 195.728256,170.256180 174.658737,176.986725 
z"/>
<path fill="#FFFFFF" opacity="1.000000" stroke="none" 
	d="
M175.070679,176.928986 
	C195.728256,170.256180 217.123642,186.643707 219.072510,206.624634 
	C220.860245,224.953552 209.272385,241.148514 191.326035,244.643127 
	C170.763565,248.647141 151.882324,234.105453 149.896988,213.451828 
	C148.325623,197.104904 158.997818,181.402618 175.070679,176.928986 
z"/>
</svg>